<svg xmlns="http://www.w3.org/2000/svg" xmlns:xlink="http://www.w3.org/1999/xlink" width="200" zoomAndPan="magnify" viewBox="0 0 150 149.999998" height="200" preserveAspectRatio="xMidYMid meet" version="1.0"><path fill="#ffb400" d="M 116.390625 15.273438 L 33.066406 15.273438 C 32.472656 15.273438 31.882812 15.300781 31.296875 15.359375 C 30.707031 15.417969 30.121094 15.503906 29.542969 15.621094 C 28.960938 15.738281 28.390625 15.882812 27.824219 16.054688 C 27.257812 16.226562 26.699219 16.425781 26.15625 16.652344 C 25.609375 16.878906 25.074219 17.128906 24.550781 17.410156 C 24.03125 17.6875 23.523438 17.992188 23.03125 18.320312 C 22.539062 18.648438 22.066406 19 21.609375 19.378906 C 21.152344 19.753906 20.714844 20.148438 20.296875 20.566406 C 19.878906 20.984375 19.480469 21.421875 19.105469 21.878906 C 18.730469 22.335938 18.378906 22.8125 18.050781 23.304688 C 17.722656 23.796875 17.417969 24.300781 17.136719 24.824219 C 16.859375 25.34375 16.605469 25.878906 16.378906 26.425781 C 16.152344 26.972656 15.953125 27.527344 15.78125 28.09375 C 15.609375 28.660156 15.464844 29.234375 15.351562 29.8125 C 15.234375 30.394531 15.148438 30.976562 15.089844 31.566406 C 15.03125 32.15625 15 32.746094 15 33.335938 L 15 116.664062 C 15 117.253906 15.03125 117.84375 15.089844 118.433594 C 15.148438 119.023438 15.234375 119.605469 15.351562 120.1875 C 15.464844 120.765625 15.609375 121.339844 15.78125 121.90625 C 15.953125 122.472656 16.152344 123.027344 16.378906 123.574219 C 16.605469 124.121094 16.859375 124.65625 17.136719 125.175781 C 17.417969 125.699219 17.722656 126.203125 18.050781 126.695312 C 18.378906 127.1875 18.730469 127.664062 19.105469 128.121094 C 19.480469 128.578125 19.878906 129.015625 20.296875 129.433594 C 20.714844 129.851562 21.152344 130.246094 21.609375 130.621094 C 22.066406 131 22.539062 131.351562 23.03125 131.679688 C 23.523438 132.007812 24.03125 132.3125 24.550781 132.589844 C 25.074219 132.871094 25.609375 133.121094 26.15625 133.347656 C 26.699219 133.574219 27.257812 133.773438 27.824219 133.945312 C 28.390625 134.117188 28.960938 134.261719 29.542969 134.378906 C 30.121094 134.496094 30.707031 134.582031 31.296875 134.640625 C 31.882812 134.699219 32.472656 134.726562 33.066406 134.726562 L 116.390625 134.726562 C 116.984375 134.726562 117.574219 134.699219 118.160156 134.640625 C 118.75 134.582031 119.335938 134.496094 119.914062 134.378906 C 120.496094 134.261719 121.066406 134.117188 121.632812 133.945312 C 122.199219 133.773438 122.757812 133.574219 123.300781 133.347656 C 123.847656 133.121094 124.382812 132.871094 124.90625 132.589844 C 125.425781 132.3125 125.933594 132.007812 126.425781 131.679688 C 126.917969 131.351562 127.390625 131 127.847656 130.621094 C 128.304688 130.246094 128.742188 129.851562 129.160156 129.433594 C 129.578125 129.015625 129.976562 128.578125 130.351562 128.121094 C 130.726562 127.664062 131.078125 127.1875 131.40625 126.695312 C 131.734375 126.203125 132.039062 125.699219 132.320312 125.175781 C 132.597656 124.65625 132.851562 124.121094 133.078125 123.574219 C 133.304688 123.027344 133.503906 122.472656 133.675781 121.90625 C 133.847656 121.339844 133.992188 120.765625 134.105469 120.1875 C 134.222656 119.605469 134.308594 119.023438 134.367188 118.433594 C 134.425781 117.84375 134.457031 117.253906 134.457031 116.664062 L 134.457031 107.578125 C 134.457031 107.222656 134.421875 106.871094 134.351562 106.519531 C 134.28125 106.171875 134.179688 105.832031 134.042969 105.5 C 133.90625 105.171875 133.738281 104.859375 133.542969 104.5625 C 133.34375 104.265625 133.117188 103.992188 132.867188 103.738281 C 132.613281 103.488281 132.339844 103.261719 132.042969 103.0625 C 131.746094 102.867188 131.433594 102.699219 131.105469 102.5625 C 130.777344 102.425781 130.4375 102.324219 130.085938 102.253906 C 129.738281 102.183594 129.382812 102.148438 129.027344 102.148438 C 128.671875 102.148438 128.316406 102.183594 127.96875 102.253906 C 127.617188 102.324219 127.277344 102.425781 126.949219 102.5625 C 126.621094 102.699219 126.308594 102.867188 126.011719 103.0625 C 125.714844 103.261719 125.441406 103.488281 125.1875 103.738281 C 124.933594 103.992188 124.710938 104.265625 124.511719 104.5625 C 124.3125 104.859375 124.148438 105.171875 124.011719 105.5 C 123.875 105.832031 123.769531 106.171875 123.703125 106.519531 C 123.632812 106.871094 123.597656 107.222656 123.597656 107.578125 L 123.597656 116.664062 C 123.597656 117.136719 123.550781 117.605469 123.457031 118.066406 C 123.363281 118.53125 123.226562 118.980469 123.046875 119.417969 C 122.863281 119.855469 122.640625 120.269531 122.378906 120.664062 C 122.117188 121.058594 121.816406 121.421875 121.484375 121.753906 C 121.148438 122.089844 120.785156 122.386719 120.390625 122.652344 C 120 122.914062 119.585938 123.136719 119.148438 123.316406 C 118.710938 123.5 118.261719 123.636719 117.796875 123.730469 C 117.332031 123.820312 116.863281 123.867188 116.390625 123.867188 L 33.066406 123.867188 C 32.59375 123.867188 32.125 123.820312 31.660156 123.730469 C 31.195312 123.636719 30.746094 123.5 30.308594 123.316406 C 29.871094 123.136719 29.457031 122.914062 29.066406 122.652344 C 28.671875 122.386719 28.308594 122.089844 27.972656 121.753906 C 27.640625 121.421875 27.339844 121.058594 27.078125 120.664062 C 26.816406 120.269531 26.59375 119.855469 26.410156 119.417969 C 26.230469 118.980469 26.09375 118.53125 26 118.066406 C 25.90625 117.605469 25.859375 117.136719 25.859375 116.664062 L 25.859375 33.335938 C 25.859375 32.863281 25.90625 32.394531 26 31.933594 C 26.09375 31.46875 26.230469 31.019531 26.410156 30.582031 C 26.59375 30.144531 26.816406 29.730469 27.078125 29.335938 C 27.339844 28.941406 27.640625 28.578125 27.972656 28.246094 C 28.308594 27.910156 28.671875 27.613281 29.066406 27.347656 C 29.457031 27.085938 29.871094 26.863281 30.308594 26.683594 C 30.746094 26.5 31.195312 26.363281 31.660156 26.269531 C 32.125 26.179688 32.59375 26.132812 33.066406 26.132812 L 116.390625 26.132812 C 116.863281 26.132812 117.332031 26.179688 117.796875 26.269531 C 118.261719 26.363281 118.710938 26.5 119.148438 26.683594 C 119.585938 26.863281 120 27.085938 120.390625 27.347656 C 120.785156 27.613281 121.148438 27.910156 121.484375 28.246094 C 121.816406 28.578125 122.117188 28.941406 122.378906 29.335938 C 122.640625 29.730469 122.863281 30.144531 123.046875 30.582031 C 123.226562 31.019531 123.363281 31.46875 123.457031 31.933594 C 123.550781 32.394531 123.597656 32.863281 123.597656 33.335938 L 123.597656 42.421875 C 123.597656 42.777344 123.632812 43.128906 123.703125 43.480469 C 123.769531 43.828125 123.875 44.167969 124.011719 44.5 C 124.148438 44.828125 124.3125 45.140625 124.511719 45.4375 C 124.710938 45.734375 124.933594 46.007812 125.1875 46.261719 C 125.441406 46.511719 125.714844 46.738281 126.011719 46.9375 C 126.308594 47.132812 126.621094 47.300781 126.949219 47.4375 C 127.277344 47.574219 127.617188 47.675781 127.96875 47.746094 C 128.316406 47.816406 128.671875 47.851562 129.027344 47.851562 C 129.382812 47.851562 129.738281 47.816406 130.085938 47.746094 C 130.4375 47.675781 130.777344 47.574219 131.105469 47.4375 C 131.433594 47.300781 131.746094 47.132812 132.042969 46.9375 C 132.339844 46.738281 132.613281 46.511719 132.867188 46.261719 C 133.117188 46.007812 133.34375 45.734375 133.542969 45.4375 C 133.738281 45.140625 133.90625 44.828125 134.042969 44.5 C 134.179688 44.167969 134.28125 43.828125 134.351562 43.480469 C 134.421875 43.128906 134.457031 42.777344 134.457031 42.421875 L 134.457031 33.335938 C 134.457031 32.746094 134.425781 32.15625 134.367188 31.566406 C 134.308594 30.976562 134.222656 30.394531 134.105469 29.8125 C 133.992188 29.234375 133.847656 28.660156 133.675781 28.09375 C 133.503906 27.527344 133.304688 26.972656 133.078125 26.425781 C 132.851562 25.878906 132.597656 25.34375 132.320312 24.824219 C 132.039062 24.300781 131.734375 23.796875 131.40625 23.304688 C 131.078125 22.8125 130.726562 22.335938 130.351562 21.878906 C 129.976562 21.421875 129.578125 20.984375 129.160156 20.566406 C 128.742188 20.148438 128.304688 19.753906 127.847656 19.378906 C 127.390625 19 126.917969 18.648438 126.425781 18.320312 C 125.933594 17.992188 125.425781 17.6875 124.90625 17.410156 C 124.382812 17.128906 123.847656 16.878906 123.300781 16.652344 C 122.757812 16.425781 122.199219 16.226562 121.632812 16.054688 C 121.066406 15.882812 120.496094 15.738281 119.914062 15.621094 C 119.335938 15.503906 118.75 15.417969 118.160156 15.359375 C 117.574219 15.300781 116.984375 15.273438 116.390625 15.273438 Z M 116.390625 15.273438 " fill-opacity="1" fill-rule="nonzero"/><path fill="#ffb400" d="M 98.039062 105.988281 C 98.289062 106.242188 98.566406 106.464844 98.863281 106.664062 C 99.15625 106.859375 99.472656 107.027344 99.800781 107.164062 C 100.128906 107.300781 100.46875 107.402344 100.820312 107.472656 C 101.167969 107.542969 101.519531 107.578125 101.878906 107.578125 C 102.234375 107.578125 102.585938 107.542969 102.9375 107.472656 C 103.285156 107.402344 103.625 107.300781 103.957031 107.164062 C 104.285156 107.027344 104.597656 106.859375 104.894531 106.664062 C 105.191406 106.464844 105.464844 106.242188 105.714844 105.988281 L 132.867188 78.839844 C 133.117188 78.585938 133.34375 78.3125 133.542969 78.015625 C 133.738281 77.71875 133.90625 77.40625 134.042969 77.078125 C 134.179688 76.75 134.28125 76.410156 134.351562 76.058594 C 134.421875 75.710938 134.457031 75.355469 134.457031 75 C 134.457031 74.644531 134.421875 74.289062 134.351562 73.941406 C 134.28125 73.589844 134.179688 73.25 134.042969 72.921875 C 133.90625 72.59375 133.738281 72.28125 133.542969 71.984375 C 133.34375 71.6875 133.117188 71.414062 132.867188 71.160156 L 105.714844 44.011719 C 105.464844 43.765625 105.1875 43.546875 104.890625 43.355469 C 104.597656 43.164062 104.285156 43.003906 103.957031 42.875 C 103.628906 42.742188 103.292969 42.644531 102.945312 42.582031 C 102.597656 42.515625 102.25 42.484375 101.898438 42.488281 C 101.542969 42.492188 101.195312 42.527344 100.851562 42.597656 C 100.503906 42.671875 100.171875 42.773438 99.84375 42.910156 C 99.519531 43.046875 99.210938 43.210938 98.917969 43.410156 C 98.625 43.605469 98.355469 43.828125 98.105469 44.078125 C 97.855469 44.328125 97.632812 44.597656 97.4375 44.890625 C 97.238281 45.183594 97.074219 45.492188 96.9375 45.816406 C 96.800781 46.144531 96.695312 46.476562 96.625 46.824219 C 96.554688 47.167969 96.519531 47.519531 96.515625 47.871094 C 96.511719 48.222656 96.542969 48.574219 96.609375 48.917969 C 96.671875 49.265625 96.769531 49.601562 96.902344 49.929688 C 97.03125 50.257812 97.191406 50.570312 97.382812 50.863281 C 97.574219 51.160156 97.792969 51.4375 98.039062 51.691406 L 115.917969 69.570312 L 58.4375 69.570312 C 58.082031 69.570312 57.730469 69.605469 57.378906 69.675781 C 57.03125 69.742188 56.691406 69.847656 56.359375 69.984375 C 56.03125 70.121094 55.71875 70.289062 55.421875 70.484375 C 55.125 70.683594 54.851562 70.910156 54.597656 71.160156 C 54.347656 71.414062 54.121094 71.6875 53.925781 71.984375 C 53.726562 72.28125 53.558594 72.59375 53.421875 72.921875 C 53.285156 73.25 53.183594 73.589844 53.113281 73.941406 C 53.042969 74.289062 53.007812 74.644531 53.007812 75 C 53.007812 75.355469 53.042969 75.710938 53.113281 76.058594 C 53.183594 76.410156 53.285156 76.75 53.421875 77.078125 C 53.558594 77.40625 53.726562 77.71875 53.925781 78.015625 C 54.121094 78.3125 54.347656 78.585938 54.597656 78.839844 C 54.851562 79.089844 55.125 79.316406 55.421875 79.515625 C 55.71875 79.710938 56.03125 79.878906 56.359375 80.015625 C 56.691406 80.152344 57.03125 80.257812 57.378906 80.324219 C 57.730469 80.394531 58.082031 80.429688 58.4375 80.429688 L 115.917969 80.429688 L 98.039062 98.308594 C 97.785156 98.5625 97.5625 98.835938 97.363281 99.132812 C 97.164062 99.429688 97 99.742188 96.863281 100.070312 C 96.726562 100.402344 96.621094 100.742188 96.554688 101.089844 C 96.484375 101.441406 96.449219 101.792969 96.449219 102.148438 C 96.449219 102.503906 96.484375 102.859375 96.554688 103.207031 C 96.621094 103.558594 96.726562 103.898438 96.863281 104.226562 C 97 104.554688 97.164062 104.867188 97.363281 105.164062 C 97.5625 105.460938 97.785156 105.734375 98.039062 105.988281 Z M 98.039062 105.988281 " fill-opacity="1" fill-rule="nonzero"/></svg>