<svg xmlns="http://www.w3.org/2000/svg" xmlns:xlink="http://www.w3.org/1999/xlink" width="200" zoomAndPan="magnify" viewBox="0 0 150 149.999998" height="200" preserveAspectRatio="xMidYMid meet" version="1.0"><defs><clipPath id="id1"><path d="M 23 25.089844 L 127 25.089844 L 127 119.589844 L 23 119.589844 Z M 23 25.089844 " clip-rule="nonzero"/></clipPath></defs><g clip-path="url(#id1)"><path fill="#ffffff" d="M 126.71875 85.480469 C 127.066406 80.535156 127.988281 55.640625 112.871094 39.269531 C 103.949219 29.605469 91.265625 24.855469 75.164062 25.171875 C 59.070312 24.867188 46.378906 29.605469 37.457031 39.269531 C 22.722656 55.226562 23.226562 79.277344 23.585938 85.066406 C 23.371094 85.867188 23.257812 86.707031 23.257812 87.578125 L 23.257812 109.777344 C 23.257812 115.160156 27.621094 119.523438 33.003906 119.523438 L 39.769531 119.523438 C 45.152344 119.523438 49.515625 115.160156 49.515625 109.777344 L 49.515625 87.578125 C 49.515625 82.195312 45.152344 77.832031 39.769531 77.832031 L 33.003906 77.832031 C 32.269531 77.832031 31.554688 77.914062 30.863281 78.070312 C 31.234375 69.21875 33.382812 54.433594 42.855469 44.199219 C 50.308594 36.144531 61.175781 32.191406 75.089844 32.484375 L 75.238281 32.484375 C 89.160156 32.203125 100.019531 36.144531 107.476562 44.199219 C 116.957031 54.445312 119.101562 69.25 119.464844 78.097656 C 118.738281 77.925781 117.980469 77.832031 117.199219 77.832031 L 110.429688 77.832031 C 105.046875 77.832031 100.6875 82.195312 100.6875 87.578125 L 100.6875 109.777344 C 100.6875 115.160156 105.046875 119.523438 110.429688 119.523438 L 117.199219 119.523438 C 122.582031 119.523438 126.945312 115.160156 126.945312 109.777344 L 126.945312 87.578125 C 126.945312 86.855469 126.863281 86.15625 126.71875 85.480469 Z M 126.71875 85.480469 " fill-opacity="1" fill-rule="nonzero"/></g><path fill="#ffffff" d="M 20.886719 88.117188 L 15 91.570312 L 15 104.769531 L 20.886719 108.625 " fill-opacity="1" fill-rule="nonzero"/><path fill="#ffffff" d="M 129.113281 88.117188 L 135 91.570312 L 135 104.769531 L 129.113281 108.625 " fill-opacity="1" fill-rule="nonzero"/></svg>