<svg xmlns="http://www.w3.org/2000/svg" xmlns:xlink="http://www.w3.org/1999/xlink" width="200" zoomAndPan="magnify" viewBox="0 0 150 149.999998" height="200" preserveAspectRatio="xMidYMid meet" version="1.0"><path fill="#ffb400" d="M 61.730469 73.148438 C 61.726562 73.171875 61.707031 73.191406 61.703125 73.214844 L 58.058594 98.820312 C 57.933594 99.6875 58.308594 100.550781 59.027344 101.058594 C 59.429688 101.34375 59.902344 101.492188 60.382812 101.492188 C 60.753906 101.492188 61.121094 101.40625 61.460938 101.230469 L 84.445312 89.347656 L 84.449219 89.347656 L 84.464844 89.34375 C 84.527344 89.308594 84.554688 89.246094 84.609375 89.207031 C 84.867188 89.050781 85.117188 88.878906 85.304688 88.617188 L 130.910156 24.433594 C 135.449219 18.054688 133.9375 9.171875 127.542969 4.640625 C 121.15625 0.117188 112.261719 1.617188 107.722656 8.003906 L 62.105469 72.191406 C 61.902344 72.484375 61.789062 72.8125 61.730469 73.148438 Z M 104.949219 20.011719 L 120.484375 31.015625 L 82.828125 83.996094 L 67.292969 72.992188 Z M 63.339844 94.980469 L 65.804688 77.675781 L 78.890625 86.953125 Z M 111.550781 10.710938 C 114.589844 6.4375 120.550781 5.421875 124.832031 8.460938 C 129.113281 11.496094 130.125 17.445312 127.085938 21.722656 L 123.195312 27.195312 L 107.660156 16.1875 Z M 111.550781 10.710938 " fill-opacity="1" fill-rule="nonzero"/><path fill="#ffb400" d="M 63.71875 139.59375 C 68.195312 140.527344 72.652344 140.96875 77.054688 140.96875 C 107.347656 140.96875 134.601562 119.765625 141.015625 89.007812 C 144.378906 72.867188 141.542969 56.195312 133.027344 42.0625 C 132.363281 40.957031 130.917969 40.597656 129.8125 41.261719 C 128.703125 41.929688 128.34375 43.367188 129.011719 44.476562 C 136.914062 57.59375 139.546875 73.066406 136.421875 88.050781 C 129.605469 120.75 97.414062 141.804688 64.671875 135.007812 C 48.8125 131.707031 35.1875 122.4375 26.304688 108.90625 C 17.425781 95.375 14.355469 79.195312 17.65625 63.359375 C 24.472656 30.667969 56.660156 9.609375 89.40625 16.410156 C 90.679688 16.683594 91.917969 15.859375 92.179688 14.59375 C 92.441406 13.328125 91.628906 12.085938 90.359375 11.824219 C 55.085938 4.488281 20.414062 27.183594 13.066406 62.410156 C 5.71875 97.628906 28.445312 132.253906 63.71875 139.59375 Z M 63.71875 139.59375 " fill-opacity="1" fill-rule="nonzero"/></svg>