<svg xmlns="http://www.w3.org/2000/svg" xmlns:xlink="http://www.w3.org/1999/xlink" width="200" zoomAndPan="magnify" viewBox="0 0 150 149.999998" height="200" preserveAspectRatio="xMidYMid meet" version="1.0"><defs><clipPath id="id1"><path d="M 15 17.175781 L 135 17.175781 L 135 137.175781 L 15 137.175781 Z M 15 17.175781 " clip-rule="nonzero"/></clipPath></defs><g clip-path="url(#id1)"><path fill="#ffffff" d="M 131.421875 60.289062 L 119.390625 59.015625 C 119.339844 58.886719 119.285156 58.757812 119.230469 58.628906 L 126.839844 49.222656 C 128.125 47.632812 128.003906 45.324219 126.554688 43.878906 L 108.296875 25.621094 C 106.847656 24.167969 104.542969 24.050781 102.953125 25.339844 L 93.546875 32.945312 C 93.417969 32.890625 93.292969 32.839844 93.164062 32.785156 L 91.890625 20.753906 C 91.671875 18.71875 89.957031 17.175781 87.910156 17.175781 L 62.089844 17.175781 C 60.042969 17.175781 58.328125 18.71875 58.109375 20.753906 L 56.835938 32.785156 C 56.707031 32.835938 56.582031 32.890625 56.453125 32.945312 L 47.046875 25.339844 C 45.457031 24.050781 43.152344 24.167969 41.703125 25.621094 L 23.445312 43.878906 C 21.996094 45.324219 21.878906 47.632812 23.164062 49.222656 L 30.769531 58.628906 C 30.71875 58.757812 30.664062 58.886719 30.609375 59.015625 L 18.582031 60.289062 C 16.542969 60.503906 15 62.21875 15 64.265625 L 15 90.085938 C 15 92.132812 16.542969 93.847656 18.582031 94.0625 L 30.609375 95.335938 C 30.660156 95.464844 30.71875 95.59375 30.769531 95.722656 L 23.160156 105.128906 C 21.875 106.71875 21.996094 109.027344 23.445312 110.472656 L 41.703125 128.730469 C 43.152344 130.179688 45.453125 130.296875 47.046875 129.011719 L 56.453125 121.40625 C 56.582031 121.460938 56.707031 121.515625 56.835938 121.566406 L 58.109375 133.597656 C 58.328125 135.632812 60.042969 137.175781 62.089844 137.175781 L 87.910156 137.175781 C 89.957031 137.175781 91.671875 135.632812 91.890625 133.597656 L 93.164062 121.566406 C 93.292969 121.511719 93.417969 121.460938 93.546875 121.40625 L 102.953125 129.011719 C 104.542969 130.296875 106.84375 130.179688 108.296875 128.730469 L 126.554688 110.472656 C 128.003906 109.027344 128.121094 106.71875 126.835938 105.128906 L 119.230469 95.722656 C 119.28125 95.59375 119.335938 95.464844 119.390625 95.335938 L 131.417969 94.0625 C 133.457031 93.847656 135 92.132812 135 90.085938 L 135 64.265625 C 135 62.21875 133.457031 60.503906 131.421875 60.289062 Z M 127 86.488281 L 116.105469 87.640625 C 114.566406 87.800781 113.257812 88.839844 112.75 90.300781 C 112.25 91.738281 111.648438 93.175781 110.96875 94.574219 C 110.292969 95.96875 110.488281 97.628906 111.457031 98.835938 L 118.351562 107.359375 L 105.183594 120.527344 L 96.660156 113.636719 C 95.453125 112.65625 93.792969 112.472656 92.398438 113.148438 C 90.980469 113.835938 89.542969 114.429688 88.132812 114.917969 C 86.667969 115.425781 85.628906 116.734375 85.464844 118.277344 L 84.3125 129.175781 L 65.691406 129.175781 L 64.535156 118.277344 C 64.371094 116.734375 63.332031 115.425781 61.867188 114.917969 C 60.449219 114.429688 59.015625 113.832031 57.601562 113.148438 C 56.210938 112.472656 54.550781 112.65625 53.339844 113.636719 L 44.816406 120.527344 L 31.644531 107.359375 L 38.539062 98.835938 C 39.511719 97.628906 39.707031 95.96875 39.027344 94.574219 C 38.351562 93.175781 37.753906 91.738281 37.253906 90.300781 C 36.742188 88.839844 35.4375 87.800781 33.894531 87.640625 L 23 86.488281 L 23 67.863281 L 33.894531 66.710938 C 35.433594 66.550781 36.742188 65.511719 37.253906 64.050781 C 37.753906 62.613281 38.351562 61.175781 39.03125 59.777344 C 39.707031 58.382812 39.515625 56.722656 38.542969 55.515625 L 31.644531 46.992188 L 44.8125 33.824219 L 53.339844 40.714844 C 54.550781 41.695312 56.210938 41.882812 57.601562 41.203125 C 59.015625 40.519531 60.449219 39.921875 61.867188 39.433594 C 63.332031 38.925781 64.371094 37.617188 64.535156 36.074219 L 65.6875 25.175781 L 84.308594 25.175781 L 85.464844 36.074219 C 85.628906 37.617188 86.667969 38.925781 88.132812 39.433594 C 89.542969 39.921875 90.980469 40.515625 92.398438 41.203125 C 93.792969 41.882812 95.453125 41.695312 96.660156 40.714844 L 105.183594 33.824219 L 118.351562 46.992188 L 111.457031 55.515625 C 110.488281 56.722656 110.292969 58.382812 110.96875 59.777344 C 111.648438 61.175781 112.25 62.613281 112.75 64.050781 C 113.257812 65.511719 114.5625 66.550781 116.105469 66.710938 L 127 67.863281 Z M 127 86.488281 " fill-opacity="1" fill-rule="nonzero"/></g><path fill="#ffffff" d="M 75 44.496094 C 56.980469 44.496094 42.324219 59.15625 42.324219 77.175781 C 42.324219 95.195312 56.980469 109.855469 75 109.855469 C 93.019531 109.855469 107.675781 95.195312 107.675781 77.175781 C 107.675781 59.15625 93.019531 44.496094 75 44.496094 Z M 75 101.855469 C 61.390625 101.855469 50.324219 90.785156 50.324219 77.175781 C 50.324219 63.566406 61.390625 52.496094 75 52.496094 C 88.609375 52.496094 99.675781 63.566406 99.675781 77.175781 C 99.675781 90.785156 88.609375 101.855469 75 101.855469 Z M 75 101.855469 " fill-opacity="1" fill-rule="nonzero"/></svg>