<svg xmlns="http://www.w3.org/2000/svg" xmlns:xlink="http://www.w3.org/1999/xlink" width="200" zoomAndPan="magnify" viewBox="0 0 150 149.999998" height="200" preserveAspectRatio="xMidYMid meet" version="1.0"><defs><clipPath id="id1"><path d="M 16 18.675781 L 134 18.675781 L 134 131 L 16 131 Z M 16 18.675781 " clip-rule="nonzero"/></clipPath></defs><g clip-path="url(#id1)"><path fill="#ffffff" d="M 40.25 18.695312 C 37.40625 18.851562 34.769531 20.714844 33.757812 23.558594 L 17.171875 70.210938 C 15.824219 74 17.742188 78.253906 21.511719 79.660156 L 26.449219 81.496094 L 26.449219 101.109375 C 26.449219 105.097656 29.738281 108.382812 33.730469 108.382812 L 39.910156 108.382812 L 45.953125 125.328125 C 47.308594 129.117188 51.546875 131.152344 55.324219 129.75 L 128.476562 102.582031 C 132.253906 101.179688 134.179688 96.921875 132.828125 93.132812 L 116.183594 46.476562 C 114.832031 42.6875 110.589844 40.652344 106.816406 42.054688 L 105.734375 42.457031 L 43.113281 19.128906 C 42.171875 18.777344 41.199219 18.640625 40.25 18.695312 Z M 40.46875 23.515625 C 40.777344 23.503906 41.101562 23.554688 41.417969 23.671875 L 93.09375 42.921875 L 33.730469 42.921875 C 33.109375 42.921875 32.515625 43.023438 31.9375 43.171875 L 38.335938 25.175781 L 38.339844 25.175781 C 38.703125 24.152344 39.539062 23.550781 40.46875 23.515625 Z M 109.460938 46.4375 C 110.398438 46.476562 111.246094 47.082031 111.613281 48.105469 L 111.609375 48.105469 L 128.25 94.761719 C 128.738281 96.125 128.0625 97.5625 126.785156 98.035156 L 113.347656 103.027344 L 94.65625 51.738281 L 108.507812 46.59375 C 108.824219 46.476562 109.148438 46.425781 109.460938 46.4375 Z M 33.730469 47.769531 L 91.417969 47.769531 L 33.660156 69.222656 C 32.757812 69.554688 31.972656 70.0625 31.304688 70.675781 L 31.304688 50.195312 C 31.304688 48.824219 32.359375 47.769531 33.730469 47.769531 Z M 105.34375 52.617188 C 104.863281 52.617188 104.398438 52.710938 103.953125 52.894531 C 103.503906 53.082031 103.113281 53.34375 102.769531 53.683594 C 102.429688 54.023438 102.164062 54.417969 101.980469 54.863281 C 101.796875 55.308594 101.703125 55.773438 101.703125 56.253906 C 101.703125 56.738281 101.796875 57.203125 101.980469 57.648438 C 102.164062 58.09375 102.429688 58.488281 102.769531 58.828125 C 103.113281 59.167969 103.503906 59.429688 103.953125 59.617188 C 104.398438 59.800781 104.863281 59.894531 105.34375 59.894531 C 105.828125 59.894531 106.292969 59.800781 106.738281 59.617188 C 107.183594 59.429688 107.578125 59.167969 107.917969 58.828125 C 108.261719 58.488281 108.523438 58.09375 108.710938 57.648438 C 108.894531 57.203125 108.988281 56.738281 108.988281 56.253906 C 108.988281 55.773438 108.894531 55.308594 108.710938 54.863281 C 108.523438 54.417969 108.261719 54.023438 107.917969 53.683594 C 107.578125 53.34375 107.183594 53.082031 106.738281 52.894531 C 106.292969 52.710938 105.828125 52.617188 105.34375 52.617188 Z M 90.105469 53.429688 L 108.796875 104.71875 L 53.628906 125.210938 C 52.355469 125.683594 51.011719 125.0625 50.523438 123.699219 L 50.53125 123.699219 L 33.882812 77.042969 C 33.394531 75.683594 34.078125 74.242188 35.351562 73.769531 Z M 26.449219 58.617188 L 26.449219 76.320312 L 23.210938 75.113281 C 21.945312 74.640625 21.261719 73.199219 21.75 71.835938 Z M 31.304688 84.257812 L 38.179688 103.535156 L 33.730469 103.535156 C 32.359375 103.535156 31.304688 102.480469 31.304688 101.109375 Z M 31.304688 84.257812 " fill-opacity="1" fill-rule="nonzero"/></g></svg>