<svg xmlns="http://www.w3.org/2000/svg" xmlns:xlink="http://www.w3.org/1999/xlink" width="200" zoomAndPan="magnify" viewBox="0 0 150 149.999998" height="200" preserveAspectRatio="xMidYMid meet" version="1.0"><path fill="#ffb400" d="M 135 75 C 135 76.964844 134.902344 78.925781 134.710938 80.882812 C 134.519531 82.835938 134.230469 84.777344 133.847656 86.707031 C 133.464844 88.632812 132.988281 90.535156 132.417969 92.417969 C 131.847656 94.296875 131.183594 96.144531 130.433594 97.960938 C 129.679688 99.777344 128.839844 101.550781 127.914062 103.285156 C 126.988281 105.015625 125.980469 106.699219 124.886719 108.335938 C 123.796875 109.96875 122.628906 111.542969 121.378906 113.0625 C 120.132812 114.582031 118.816406 116.035156 117.425781 117.425781 C 116.035156 118.816406 114.582031 120.132812 113.0625 121.378906 C 111.542969 122.628906 109.96875 123.796875 108.335938 124.886719 C 106.699219 125.980469 105.015625 126.988281 103.285156 127.914062 C 101.550781 128.839844 99.777344 129.679688 97.960938 130.433594 C 96.144531 131.183594 94.296875 131.847656 92.417969 132.417969 C 90.535156 132.988281 88.632812 133.464844 86.707031 133.847656 C 84.777344 134.230469 82.835938 134.519531 80.882812 134.710938 C 78.925781 134.902344 76.964844 135 75 135 C 73.035156 135 71.074219 134.902344 69.117188 134.710938 C 67.164062 134.519531 65.222656 134.230469 63.292969 133.847656 C 61.367188 133.464844 59.464844 132.988281 57.582031 132.417969 C 55.703125 131.847656 53.855469 131.183594 52.039062 130.433594 C 50.222656 129.679688 48.449219 128.839844 46.714844 127.914062 C 44.984375 126.988281 43.300781 125.980469 41.664062 124.886719 C 40.03125 123.796875 38.457031 122.628906 36.9375 121.378906 C 35.417969 120.132812 33.964844 118.816406 32.574219 117.425781 C 31.183594 116.035156 29.867188 114.582031 28.621094 113.0625 C 27.371094 111.542969 26.203125 109.96875 25.113281 108.335938 C 24.019531 106.699219 23.011719 105.015625 22.085938 103.285156 C 21.160156 101.550781 20.320312 99.777344 19.566406 97.960938 C 18.816406 96.144531 18.152344 94.296875 17.582031 92.417969 C 17.011719 90.535156 16.535156 88.632812 16.152344 86.707031 C 15.769531 84.777344 15.480469 82.835938 15.289062 80.882812 C 15.097656 78.925781 15 76.964844 15 75 C 15 73.035156 15.097656 71.074219 15.289062 69.117188 C 15.480469 67.164062 15.769531 65.222656 16.152344 63.292969 C 16.535156 61.367188 17.011719 59.464844 17.582031 57.582031 C 18.152344 55.703125 18.816406 53.855469 19.566406 52.039062 C 20.320312 50.222656 21.160156 48.449219 22.085938 46.714844 C 23.011719 44.984375 24.019531 43.300781 25.113281 41.664062 C 26.203125 40.03125 27.371094 38.457031 28.621094 36.9375 C 29.867188 35.417969 31.183594 33.964844 32.574219 32.574219 C 33.964844 31.183594 35.417969 29.867188 36.9375 28.621094 C 38.457031 27.371094 40.03125 26.203125 41.664062 25.113281 C 43.300781 24.019531 44.984375 23.011719 46.714844 22.085938 C 48.449219 21.160156 50.222656 20.320312 52.039062 19.566406 C 53.855469 18.816406 55.703125 18.152344 57.582031 17.582031 C 59.464844 17.011719 61.367188 16.535156 63.292969 16.152344 C 65.222656 15.769531 67.164062 15.480469 69.117188 15.289062 C 71.074219 15.097656 73.035156 15 75 15 C 76.964844 15 78.925781 15.097656 80.882812 15.289062 C 82.835938 15.480469 84.777344 15.769531 86.707031 16.152344 C 88.632812 16.535156 90.535156 17.011719 92.417969 17.582031 C 94.296875 18.152344 96.144531 18.816406 97.960938 19.566406 C 99.777344 20.320312 101.550781 21.160156 103.285156 22.085938 C 105.015625 23.011719 106.699219 24.019531 108.335938 25.113281 C 109.96875 26.203125 111.542969 27.371094 113.0625 28.621094 C 114.582031 29.867188 116.035156 31.183594 117.425781 32.574219 C 118.816406 33.964844 120.132812 35.417969 121.378906 36.9375 C 122.628906 38.457031 123.796875 40.03125 124.886719 41.664062 C 125.980469 43.300781 126.988281 44.984375 127.914062 46.714844 C 128.839844 48.449219 129.679688 50.222656 130.433594 52.039062 C 131.183594 53.855469 131.847656 55.703125 132.417969 57.582031 C 132.988281 59.464844 133.464844 61.367188 133.847656 63.292969 C 134.230469 65.222656 134.519531 67.164062 134.710938 69.117188 C 134.902344 71.074219 135 73.035156 135 75 Z M 135 75 " fill-opacity="1" fill-rule="nonzero"/><path fill="#fefefe" d="M 56.761719 40.878906 L 98.71875 40.878906 C 100.800781 40.878906 102.480469 42.558594 102.480469 44.640625 L 102.480469 105.359375 C 102.480469 107.441406 100.800781 109.121094 98.71875 109.121094 L 56.761719 109.121094 C 54.71875 109.121094 53 107.441406 53 105.359375 L 53 97.238281 L 56.28125 97.238281 C 58.238281 97.238281 59.839844 95.640625 59.839844 93.679688 C 59.839844 91.71875 58.238281 90.121094 56.28125 90.121094 L 53 90.121094 L 53 78.558594 L 56.28125 78.558594 C 58.238281 78.558594 59.839844 76.960938 59.839844 75 C 59.839844 73.039062 58.238281 71.441406 56.28125 71.441406 L 53 71.441406 L 53 59.878906 L 56.28125 59.878906 C 58.238281 59.878906 59.839844 58.28125 59.839844 56.320312 C 59.839844 54.359375 58.238281 52.761719 56.28125 52.761719 L 53 52.761719 L 53 44.640625 C 53 42.558594 54.71875 40.878906 56.761719 40.878906 Z M 69.640625 53.480469 C 69.238281 53.480469 68.960938 53.761719 68.960938 54.121094 C 68.960938 54.480469 69.238281 54.800781 69.640625 54.800781 L 93.878906 54.800781 C 94.238281 54.800781 94.519531 54.480469 94.519531 54.121094 C 94.519531 53.761719 94.238281 53.480469 93.878906 53.480469 Z M 62.960938 52.160156 C 64.039062 52.160156 64.921875 53.039062 64.921875 54.121094 C 64.921875 55.238281 64.039062 56.121094 62.960938 56.121094 C 61.839844 56.121094 60.960938 55.238281 60.960938 54.121094 C 60.960938 53.039062 61.839844 52.160156 62.960938 52.160156 Z M 69.640625 67.359375 C 69.238281 67.359375 68.960938 67.679688 68.960938 68.039062 C 68.960938 68.398438 69.238281 68.71875 69.640625 68.71875 L 93.878906 68.71875 C 94.238281 68.71875 94.519531 68.398438 94.519531 68.039062 C 94.519531 67.679688 94.238281 67.359375 93.878906 67.359375 Z M 62.960938 66.078125 C 64.039062 66.078125 64.921875 66.960938 64.921875 68.039062 C 64.921875 69.121094 64.039062 70.039062 62.960938 70.039062 C 61.839844 70.039062 60.960938 69.121094 60.960938 68.039062 C 60.960938 66.960938 61.839844 66.078125 62.960938 66.078125 Z M 69.640625 81.28125 C 69.238281 81.28125 68.960938 81.601562 68.960938 81.960938 C 68.960938 82.320312 69.238281 82.640625 69.640625 82.640625 L 93.878906 82.640625 C 94.238281 82.640625 94.519531 82.320312 94.519531 81.960938 C 94.519531 81.601562 94.238281 81.28125 93.878906 81.28125 Z M 62.960938 79.960938 C 64.039062 79.960938 64.921875 80.878906 64.921875 81.960938 C 64.921875 83.039062 64.039062 83.921875 62.960938 83.921875 C 61.839844 83.921875 60.960938 83.039062 60.960938 81.960938 C 60.960938 80.878906 61.839844 79.960938 62.960938 79.960938 Z M 69.640625 95.199219 C 69.238281 95.199219 68.960938 95.519531 68.960938 95.878906 C 68.960938 96.238281 69.238281 96.519531 69.640625 96.519531 L 93.878906 96.519531 C 94.238281 96.519531 94.519531 96.238281 94.519531 95.878906 C 94.519531 95.519531 94.238281 95.199219 93.878906 95.199219 Z M 62.960938 93.878906 C 64.039062 93.878906 64.921875 94.761719 64.921875 95.878906 C 64.921875 96.960938 64.039062 97.839844 62.960938 97.839844 C 61.839844 97.839844 60.960938 96.960938 60.960938 95.878906 C 60.960938 94.761719 61.839844 93.878906 62.960938 93.878906 Z M 62.960938 93.878906 " fill-opacity="1" fill-rule="evenodd"/><path fill="#fefefe" d="M 49.761719 54.078125 L 56.28125 54.078125 C 56.578125 54.078125 56.863281 54.136719 57.136719 54.25 C 57.410156 54.363281 57.652344 54.523438 57.863281 54.730469 C 58.074219 54.9375 58.234375 55.179688 58.347656 55.449219 C 58.464844 55.722656 58.519531 56.003906 58.519531 56.300781 C 58.519531 56.59375 58.464844 56.878906 58.347656 57.148438 C 58.234375 57.421875 58.074219 57.660156 57.863281 57.871094 C 57.652344 58.078125 57.410156 58.238281 57.136719 58.351562 C 56.863281 58.464844 56.578125 58.519531 56.28125 58.519531 L 49.761719 58.519531 C 49.464844 58.519531 49.175781 58.464844 48.902344 58.351562 C 48.628906 58.238281 48.386719 58.078125 48.175781 57.871094 C 47.964844 57.660156 47.804688 57.421875 47.691406 57.148438 C 47.578125 56.878906 47.519531 56.59375 47.519531 56.300781 C 47.519531 56.003906 47.578125 55.722656 47.691406 55.449219 C 47.804688 55.179688 47.964844 54.9375 48.175781 54.730469 C 48.386719 54.523438 48.628906 54.363281 48.902344 54.25 C 49.175781 54.136719 49.464844 54.078125 49.761719 54.078125 Z M 49.761719 54.078125 " fill-opacity="1" fill-rule="evenodd"/><path fill="#fefefe" d="M 49.761719 72.761719 L 56.28125 72.761719 C 56.578125 72.761719 56.863281 72.816406 57.136719 72.929688 C 57.410156 73.042969 57.652344 73.203125 57.863281 73.410156 C 58.074219 73.617188 58.234375 73.859375 58.347656 74.128906 C 58.464844 74.402344 58.519531 74.6875 58.519531 74.980469 C 58.519531 75.273438 58.464844 75.558594 58.347656 75.828125 C 58.234375 76.101562 58.074219 76.339844 57.863281 76.550781 C 57.652344 76.757812 57.410156 76.917969 57.136719 77.03125 C 56.863281 77.144531 56.578125 77.199219 56.28125 77.199219 L 49.761719 77.199219 C 49.464844 77.199219 49.175781 77.144531 48.902344 77.03125 C 48.628906 76.917969 48.386719 76.757812 48.175781 76.550781 C 47.964844 76.339844 47.804688 76.101562 47.691406 75.828125 C 47.578125 75.558594 47.519531 75.273438 47.519531 74.980469 C 47.519531 74.6875 47.578125 74.402344 47.691406 74.128906 C 47.804688 73.859375 47.964844 73.617188 48.175781 73.410156 C 48.386719 73.203125 48.628906 73.042969 48.902344 72.929688 C 49.175781 72.816406 49.464844 72.761719 49.761719 72.761719 Z M 49.761719 72.761719 " fill-opacity="1" fill-rule="evenodd"/><path fill="#fefefe" d="M 49.761719 91.441406 L 56.28125 91.441406 C 56.578125 91.441406 56.863281 91.496094 57.136719 91.609375 C 57.410156 91.722656 57.652344 91.882812 57.863281 92.089844 C 58.074219 92.296875 58.234375 92.539062 58.347656 92.808594 C 58.464844 93.082031 58.519531 93.367188 58.519531 93.660156 C 58.519531 93.953125 58.464844 94.238281 58.347656 94.507812 C 58.234375 94.78125 58.074219 95.023438 57.863281 95.230469 C 57.652344 95.4375 57.410156 95.597656 57.136719 95.710938 C 56.863281 95.824219 56.578125 95.878906 56.28125 95.878906 L 49.761719 95.878906 C 49.464844 95.878906 49.175781 95.824219 48.902344 95.710938 C 48.628906 95.597656 48.386719 95.4375 48.175781 95.230469 C 47.964844 95.023438 47.804688 94.78125 47.691406 94.507812 C 47.578125 94.238281 47.519531 93.953125 47.519531 93.660156 C 47.519531 93.367188 47.578125 93.082031 47.691406 92.808594 C 47.804688 92.539062 47.964844 92.296875 48.175781 92.089844 C 48.386719 91.882812 48.628906 91.722656 48.902344 91.609375 C 49.175781 91.496094 49.464844 91.441406 49.761719 91.441406 Z M 49.761719 91.441406 " fill-opacity="1" fill-rule="evenodd"/></svg>